<svg width="38" height="38" viewBox="0 0 38 38" fill="none" xmlns="http://www.w3.org/2000/svg">
<path d="M19 34.8333C16.8361 34.8333 14.791 34.4174 12.8646 33.5857C10.9382 32.7549 9.25619 31.6202 7.81852 30.1815C6.3798 28.7438 5.24508 27.0618 4.41435 25.1354C3.58258 23.209 3.16669 21.1639 3.16669 19C3.16669 16.8097 3.58258 14.7583 4.41435 12.8456C5.24508 10.9319 6.3798 9.25617 7.81852 7.81851C9.25619 6.37978 10.9382 5.24453 12.8646 4.41275C14.791 3.58203 16.8361 3.16667 19 3.16667C21.1903 3.16667 23.2418 3.58203 25.1544 4.41275C27.0682 5.24453 28.7439 6.37978 30.1815 7.81851C31.6202 9.25617 32.755 10.9319 33.5857 12.8456C34.4175 14.7583 34.8334 16.8097 34.8334 19V21.2958C34.8334 22.8528 34.2992 24.1786 33.231 25.2732C32.1617 26.3688 30.8486 26.9167 29.2917 26.9167C28.3417 26.9167 27.4577 26.7056 26.6396 26.2833C25.8215 25.8611 25.1486 25.3069 24.6209 24.6208C23.9084 25.3333 23.0708 25.8944 22.1081 26.3039C21.1444 26.7124 20.1084 26.9167 19 26.9167C16.8097 26.9167 14.943 26.1445 13.3998 24.6003C11.8555 23.057 11.0834 21.1903 11.0834 19C11.0834 16.8097 11.8555 14.9424 13.3998 13.3982C14.943 11.8549 16.8097 11.0833 19 11.0833C21.1903 11.0833 23.0576 11.8549 24.6019 13.3982C26.1451 14.9424 26.9167 16.8097 26.9167 19V21.2958C26.9167 22.0611 27.1542 22.6612 27.6292 23.0961C28.1042 23.532 28.6584 23.75 29.2917 23.75C29.925 23.75 30.4792 23.532 30.9542 23.0961C31.4292 22.6612 31.6667 22.0611 31.6667 21.2958V19C31.6667 15.5431 30.4195 12.5674 27.9253 10.0732C25.432 7.57995 22.457 6.33334 19 6.33334C15.5431 6.33334 12.5675 7.57995 10.0732 10.0732C7.57996 12.5674 6.33335 15.5431 6.33335 19C6.33335 22.4569 7.57996 25.432 10.0732 27.9253C12.5675 30.4195 15.5431 31.6667 19 31.6667H26.9167V34.8333H19ZM19 23.75C20.3195 23.75 21.441 23.2882 22.3646 22.3646C23.2882 21.441 23.75 20.3194 23.75 19C23.75 17.6806 23.2882 16.559 22.3646 15.6354C21.441 14.7118 20.3195 14.25 19 14.25C17.6806 14.25 16.559 14.7118 15.6354 15.6354C14.7118 16.559 14.25 17.6806 14.25 19C14.25 20.3194 14.7118 21.441 15.6354 22.3646C16.559 23.2882 17.6806 23.75 19 23.75Z" fill="white"/>
</svg>
