<svg width="52" height="52" viewBox="0 0 52 52" fill="none" xmlns="http://www.w3.org/2000/svg">
<path fill-rule="evenodd" clip-rule="evenodd" d="M16.1742 2.30967C18.7157 2.19267 19.526 2.16667 26 2.16667C32.474 2.16667 33.2843 2.19484 35.8237 2.30967C38.363 2.42451 40.0963 2.82967 41.613 3.41684C43.2012 4.01701 44.642 4.95517 45.8337 6.16851C47.047 7.35801 47.983 8.79667 48.581 10.387C49.1703 11.9037 49.5733 13.637 49.6903 16.172C49.8073 18.7178 49.8333 19.5282 49.8333 26C49.8333 32.474 49.8052 33.2843 49.6903 35.8258C49.5755 38.3608 49.1703 40.0942 48.581 41.6108C47.983 43.2014 47.0454 44.6424 45.8337 45.8337C44.642 47.047 43.2012 47.983 41.613 48.581C40.0963 49.1703 38.363 49.5733 35.828 49.6903C33.2843 49.8073 32.474 49.8333 26 49.8333C19.526 49.8333 18.7157 49.8052 16.1742 49.6903C13.6392 49.5755 11.9058 49.1703 10.3892 48.581C8.79865 47.9829 7.3576 47.0454 6.16632 45.8337C4.95381 44.6435 4.01551 43.2031 3.41682 41.613C2.82966 40.0963 2.42666 38.363 2.30966 35.828C2.19266 33.2822 2.16666 32.4718 2.16666 26C2.16666 19.526 2.19482 18.7157 2.30966 16.1763C2.42449 13.637 2.82966 11.9037 3.41682 10.387C4.01639 8.79685 4.95541 7.35652 6.16849 6.16634C7.35808 4.95409 8.79768 4.0158 10.387 3.41684C11.9037 2.82967 13.637 2.42667 16.172 2.30967H16.1742ZM35.6308 6.59967C33.1175 6.48484 32.3635 6.46101 26 6.46101C19.6365 6.46101 18.8825 6.48484 16.3692 6.59967C14.0443 6.70584 12.7833 7.09367 11.9427 7.42084C10.8312 7.85417 10.036 8.36767 9.20182 9.20184C8.41109 9.97112 7.80255 10.9076 7.42082 11.9427C7.09366 12.7833 6.70582 14.0443 6.59966 16.3692C6.48482 18.8825 6.46099 19.6365 6.46099 26C6.46099 32.3635 6.48482 33.1175 6.59966 35.6308C6.70582 37.9557 7.09366 39.2167 7.42082 40.0573C7.80216 41.0908 8.41099 42.029 9.20182 42.7982C9.97099 43.589 10.9092 44.1978 11.9427 44.5792C12.7833 44.9063 14.0443 45.2942 16.3692 45.4003C18.8825 45.5152 19.6343 45.539 26 45.539C32.3657 45.539 33.1175 45.5152 35.6308 45.4003C37.9557 45.2942 39.2167 44.9063 40.0573 44.5792C41.1688 44.1458 41.964 43.6323 42.7982 42.7982C43.589 42.029 44.1978 41.0908 44.5792 40.0573C44.9063 39.2167 45.2942 37.9557 45.4003 35.6308C45.5152 33.1175 45.539 32.3635 45.539 26C45.539 19.6365 45.5152 18.8825 45.4003 16.3692C45.2942 14.0443 44.9063 12.7833 44.5792 11.9427C44.1458 10.8312 43.6323 10.036 42.7982 9.20184C42.0288 8.41116 41.0924 7.80263 40.0573 7.42084C39.2167 7.09367 37.9557 6.70584 35.6308 6.59967ZM22.9558 33.3472C24.6559 34.0549 26.549 34.1504 28.3117 33.6174C30.0744 33.0844 31.5973 31.956 32.6205 30.4249C33.6436 28.8937 34.1034 27.0549 33.9214 25.2224C33.7394 23.3899 32.9268 21.6774 31.6225 20.3775C30.791 19.5465 29.7856 18.9103 28.6787 18.5145C27.5718 18.1187 26.3909 17.9733 25.2211 18.0887C24.0512 18.2041 22.9215 18.5774 21.9132 19.1818C20.905 19.7862 20.0433 20.6066 19.3901 21.584C18.737 22.5614 18.3087 23.6715 18.1361 24.8343C17.9635 25.997 18.0508 27.1836 18.3918 28.3086C18.7328 29.4336 19.319 30.469 20.1082 31.3402C20.8974 32.2115 21.8699 32.8969 22.9558 33.3472ZM17.3377 17.3377C18.4752 16.2001 19.8257 15.2978 21.312 14.6821C22.7983 14.0665 24.3912 13.7496 26 13.7496C27.6087 13.7496 29.2017 14.0665 30.688 14.6821C32.1743 15.2978 33.5248 16.2001 34.6623 17.3377C35.7999 18.4752 36.7022 19.8257 37.3179 21.312C37.9335 22.7983 38.2504 24.3913 38.2504 26C38.2504 27.6087 37.9335 29.2017 37.3179 30.688C36.7022 32.1743 35.7999 33.5248 34.6623 34.6623C32.3649 36.9597 29.249 38.2504 26 38.2504C22.751 38.2504 19.635 36.9597 17.3377 34.6623C15.0403 32.3649 13.7496 29.249 13.7496 26C13.7496 22.751 15.0403 19.6351 17.3377 17.3377ZM40.9673 15.574C41.2492 15.3081 41.4749 14.9883 41.631 14.6336C41.7871 14.2789 41.8704 13.8965 41.8761 13.509C41.8817 13.1215 41.8096 12.7369 41.6639 12.3778C41.5182 12.0187 41.3019 11.6924 41.0279 11.4184C40.7539 11.1444 40.4277 10.9281 40.0686 10.7825C39.7095 10.6368 39.3248 10.5646 38.9373 10.5703C38.5498 10.5759 38.1674 10.6593 37.8127 10.8153C37.458 10.9714 37.1382 11.1971 36.8723 11.479C36.3552 12.0272 36.072 12.7554 36.083 13.509C36.094 14.2626 36.3982 14.9822 36.9312 15.5152C37.4641 16.0481 38.1837 16.3523 38.9373 16.3633C39.6909 16.3743 40.4191 16.0912 40.9673 15.574Z" fill="#FF0099"/>
</svg>
