<svg width="52" height="52" viewBox="0 0 52 52" fill="none" xmlns="http://www.w3.org/2000/svg">
<path fill-rule="evenodd" clip-rule="evenodd" d="M20.4295 19.4328H28.4765V23.4412C29.6356 21.1358 32.6083 19.0645 37.0738 19.0645C45.6343 19.0645 47.6666 23.6535 47.6666 32.0732V47.6667H39V33.9907C39 29.1958 37.8408 26.4918 34.8898 26.4918C30.797 26.4918 29.0961 29.406 29.0961 33.9885V47.6667H20.4295V19.4328ZM5.56831 47.2983H14.235V19.0645H5.56831V47.2983ZM15.4765 9.85833C15.4768 10.5848 15.3327 11.304 15.0527 11.9743C14.7726 12.6445 14.3621 13.2524 13.845 13.7627C12.7972 14.804 11.3789 15.3869 9.90165 15.3833C8.42699 15.3823 7.01199 14.8009 5.96265 13.7648C5.44744 13.2529 5.03832 12.6443 4.75872 11.9739C4.47913 11.3036 4.33457 10.5846 4.33331 9.85833C4.33331 8.3915 4.91831 6.9875 5.96481 5.95183C7.01323 4.91434 8.42883 4.33268 9.90381 4.33333C11.3815 4.33333 12.7985 4.91616 13.845 5.95183C14.8893 6.9875 15.4765 8.3915 15.4765 9.85833Z" fill="#0C64C5"/>
</svg>
