<svg width="32" height="43" viewBox="0 0 32 43" fill="none" xmlns="http://www.w3.org/2000/svg">
<g clip-path="url(#clip0_1_16)">
<path d="M14.3556 41.8133C2.24711 24.2524 0 22.4516 0 16C0 7.16267 7.16267 0 16 0C24.8373 0 32 7.16267 32 16C32 22.4516 29.7529 24.2489 17.6444 41.8062C17.4606 42.071 17.2154 42.2875 16.9299 42.4373C16.6444 42.587 16.3269 42.6656 16.0045 42.6663C15.6821 42.667 15.3643 42.5898 15.0781 42.4413C14.792 42.2928 14.5459 42.0774 14.3609 41.8133L14.3573 41.8062L14.3556 41.8133ZM16 22.6667C17.7681 22.6667 19.4638 21.9643 20.714 20.714C21.9643 19.4638 22.6667 17.7681 22.6667 16C22.6667 14.2319 21.9643 12.5362 20.714 11.286C19.4638 10.0357 17.7681 9.33333 16 9.33333C14.2319 9.33333 12.5362 10.0357 11.286 11.286C10.0357 12.5362 9.33333 14.2319 9.33333 16C9.33333 17.7681 10.0357 19.4638 11.286 20.714C12.5362 21.9643 14.2319 22.6667 16 22.6667Z" fill="white"/>
</g>
<defs>
<clipPath id="clip0_1_16">
<rect width="32" height="42.6667" fill="white"/>
</clipPath>
</defs>
</svg>
